/* XPM */
static char *logo_50_xpm[] = {
/* columns rows colors chars-per-pixel */
"50 50 90 1 ",
"  c #37061D",
". c #7A061A",
"X c #690418",
"o c #4E1126",
"O c #6E2A3B",
"+ c #580E22",
"@ c #061C4A",
"# c #082857",
"$ c #102550",
"% c #093468",
"& c #07386E",
"* c #223E6B",
"= c #6B3748",
"- c #134679",
"; c #0D4378",
": c #344D76",
"> c #704A55",
", c #6F6B6D",
"< c #545462",
"1 c #890518",
"2 c #970618",
"3 c #9C000E",
"4 c #9B1426",
"5 c #8F1426",
"6 c #A51728",
"7 c #8E2939",
"8 c #A72939",
"9 c #A30618",
"0 c #953747",
"q c #AF3544",
"w c #8A4956",
"e c #AA4A57",
"r c #AC5A66",
"t c #917279",
"y c #A6616D",
"u c #C46C77",
"i c #C35763",
"p c #034C88",
"a c #06528D",
"s c #195689",
"d c #055592",
"f c #16568C",
"g c #2C5887",
"h c #1D6499",
"j c #27699C",
"k c #386692",
"l c #2D72A5",
"z c #1B68A2",
"x c #516B8D",
"c c #6C758F",
"v c #4D7AA4",
"b c #485F84",
"n c #A47881",
"m c #C27882",
"M c #3F83B5",
"N c #5388B3",
"B c #6F91B2",
"V c #7B868E",
"C c #6FA0C2",
"Z c #918C91",
"A c #AC8D95",
"S c #8C9AAF",
"D c #AB9EA2",
"F c #B2AFB2",
"G c #94A6BA",
"H c #C98790",
"J c #CA9CA2",
"K c #D7A5AD",
"L c #CEADB2",
"P c #E09DA5",
"I c #99B3CA",
"U c #8BAEC9",
"Y c #A7B8CA",
"T c #A7BED2",
"R c #B8BCC5",
"E c #CCBDC4",
"W c #E1BCC0",
"Q c #A8C1D5",
"! c #B9C6D3",
"~ c #C9C8C9",
"^ c #D8D6D7",
"/ c #CFCED3",
"( c #E3D2D5",
") c #D9E0DF",
"_ c #CCDAE4",
"` c #DBE2E8",
"' c #E8E7E7",
"] c #F9F8F8",
"[ c #EFECED",
"{ c None",
/* pixels */
"{{{{{{{{{{{{{{{{{{{{{{{{{{{{{{{{{{{{{{{{{{{{{{{{{{",
"{{{{{{{{{{{{{{{{{{{{{{{{{{{{{{{{{{{{{{{{{{{{{{{{{{",
"{{{{{{{{{{{{{{{{{{{{{PHW){{{{{{{{{{{{{{{{{{{{{{{{{",
"{{{{{{{{{{{{{{{{{{{{{K639uKL{{{{{{{{{{{{{{{{{{{{{{",
"{{{{{{{{{{{{{{{{{{{{{Fu92236iuH~{{{{{{{{{{{{{{{{{{",
"{{{{{{{{{{{{{{{{{{)QBkE832466966u({{{{{{{{{{{{{{{{",
"{{{{{{{{{{{{{{{YINdddB`r3228623663iLD{{{{{{{{{{{{{",
"{{{{{{{{{{{{UBNzdddhz]`)222422286996quJ{{{{{{{{{{{",
"{{{{{{{{{^UzzddhhdpaQ]]~u22222242228696i({{{{{{{{{",
"{{{{{{{YUlddlppdpdph]]]`L2122224223422488F{{{{{{{{",
"{{{{{IBzdzddaapdppdI]]][/q14232r222222268F{{{{{{{{",
"{{{{{lzadpddjdpppdh']][')Jur112e222222226F{{{{{{{{",
"{{{{{dfdpppajhdajfC]]`_~~'KKmKKHq424122r6F{{{{{{{{",
"{{{{{dladfajNUBCTI'][/s/F^yKLKLWLHH0482e4F{{{{{{{{",
"{{{{{dNfpjfakTTTBQ]]]B;*~FJLKKKKLKH128uHeF{{{{{{{{",
"{{{{{NUlppdpfUTTN_]]!fg#-IRJLJHPLLe11187uD{{{{{{{{",
"{{{{{fvfpppppNTTC[]`kfs--*kxVVc,<~=111i1e,{{{{{{{{",
"{{{{{ffpp;pppNTIT[`vkssss%%%$$@@,AO11111u{{{{{{{{{",
"{{{{{lpp;akjkGUNQ_Nf;shss-##@@@$F>711151K{{{{{{{{{",
"{{{{{BhNNUIIYY_QCljf;;ss-%###@@Z>tO115w3J{{{{{{{{{",
"{{{{{IpNYTU_]UNlllh;s-%--##$#@$Z,r.1.711D{{{{{{{{{",
"{{{{{!&vTYBGGFUNjj-;j&%-;%##@@:,te...517t{{{{{{{{{",
"{{{{{{gvTTTTBSGDCjhhh--;%#%#$$xtnw.1.e.y<{{{{{{{{{",
"{{{{{{UBIv&GYYYS~Cjhhs-%%%###%:>ty..70.e{{{{{{{{{{",
"{{{{{{T;v%&fTYYI~)Mdhh-;#%%%--,ZA7Xrur8A{{{{{{{{{{",
"{{{{{{{js&&&T!TI'^!Mhhhh%%s--;xVwX..0O0S{{{{{{{{{{",
"{{{{{{{v;f&;v&sS[[/Mjh-;%%----kZ+X..0.AnDKKKH{{{{{",
"{{{{{{{S-g&&&&%g[[/C-;%%%-ss--%G=oX70t'E']]][H{{{{",
"{{{{{{{{k--%%%%:)])Bh&;;--:-%$@*F=wHJ([]]]]][{{{{{",
"{{{{{{{{!gBc&BB!]]_CM;;%;ssBF!R!~WD([][]]][[J{{{{{",
"{{{{{{{{{Gk&%&GQ_]_NM--;sBFZZnAZF/')[]]]['({{{{{{{",
"{{{{{{{{{Zg&#%kQQ[_Mzzh-kFDFnDEL(('('^((LJ{{{{{{{{",
"{{{{{{{{{{S-:#&Sx[(~/IvxBF~LDJLLFEFEFFF{{{{{{{{{{{",
"{{{{{{{{{{{c%##%@Y'~FR///~^FAAAZAZAD,{{{{{{{{{{{{{",
"{{{{{{{{{{{{B:%**x]['`^~~~^tttyww>A{{{{{{{{{{{{{{{",
"{{{{{{{{{{{{ZSb:bx/]]['')(F>>OoO=A{{{{{{{{{{{{{{{{",
"{{{{{{{{{{{{{RRcbxc]]]]][[Ooo+++m,{{{{{{{{{{{{{{{{",
"{{{{{{{{{{{{{{BG@*$E]]]][Fo+ +=D<{{{{{{{{{{{{{{{{{",
"{{{{{{{{{{{{{{{Zx$#<]]]]'>oo+OL<{{{{{{{{{{{{{{{{{{",
"{{{{{{{{{{{{{{{{{c#@S]]'FOoow~V{{{{{{{{{{{{{{{{{{{",
"{{{{{{{{{{{{{{{{{{S:$D]'=oooD<{{{{{{{{{{{{{{{{{{{{",
"{{{{{{{{{{{{{{{{{{{Fc$YZ  oD{{{{{{{{{{{{{{{{{{{{{{",
"{{{{{{{{{{{{{{{{{{{{{SZ  <D{{{{{{{{{{{{{{{{{{{{{{{",
"{{{{{{{{{{{{{{{{{{{{{L=oA,{{{{{{{{{{{{{{{{{{{{{{{{",
"{{{{{{{{{{{{{{{{{{{{~>=~,Z{{{{{{{{{{{{{{{{{{{{{{{{",
"{{{{{{{{{{{{{{{{{{{FttS{{{{{{{{{{{{{{{{{{{{{{{{{{{",
"{{{{{{{{{{{{{{{{{{/EV{{{{{{{{{{{{{{{{{{{{{{{{{{{{{",
"{{{{{{{{{{{{{{{{{['{{{{{{{{{{{{{{{{{{{{{{{{{{{{{{{",
"{{{{{{{{{{{{{{{{{{{{{{{{{{{{{{{{{{{{{{{{{{{{{{{{{{",
"{{{{{{{{{{{{{{{{{{{{{{{{{{{{{{{{{{{{{{{{{{{{{{{{{{"
};
